<?xml version="1.0" encoding="UTF-8" standalone="no"?>
<!-- Created with Inkscape (http://www.inkscape.org/) -->

<svg
   xmlns:dc="http://purl.org/dc/elements/1.1/"
   xmlns:cc="http://creativecommons.org/ns#"
   xmlns:rdf="http://www.w3.org/1999/02/22-rdf-syntax-ns#"
   xmlns:svg="http://www.w3.org/2000/svg"
   xmlns="http://www.w3.org/2000/svg"
   xmlns:sodipodi="http://sodipodi.sourceforge.net/DTD/sodipodi-0.dtd"
   xmlns:inkscape="http://www.inkscape.org/namespaces/inkscape"
   width="496.46912"
   height="496.46912"
   id="svg4016"
   version="1.1"
   inkscape:version="0.48.4 r9939"
   sodipodi:docname="female-engineer-solo.svg"
   inkscape:export-filename="/home/moorepants/Websites/eme185-splash/content/images/female-engineer-solo.png"
   inkscape:export-xdpi="46.407719"
   inkscape:export-ydpi="46.407719">
  <defs
     id="defs4018" />
  <sodipodi:namedview
     id="base"
     pagecolor="#ffffff"
     bordercolor="#666666"
     borderopacity="1.0"
     inkscape:pageopacity="0.0"
     inkscape:pageshadow="2"
     inkscape:zoom="1.4240564"
     inkscape:cx="241.17753"
     inkscape:cy="294.98028"
     inkscape:document-units="px"
     inkscape:current-layer="layer1"
     showgrid="false"
     fit-margin-top="0"
     fit-margin-left="0"
     fit-margin-right="0"
     fit-margin-bottom="0"
     inkscape:window-width="1680"
     inkscape:window-height="1026"
     inkscape:window-x="0"
     inkscape:window-y="24"
     inkscape:window-maximized="1" />
  <metadata
     id="metadata4021">
    <rdf:RDF>
      <cc:Work
         rdf:about="">
        <dc:format>image/svg+xml</dc:format>
        <dc:type
           rdf:resource="http://purl.org/dc/dcmitype/StillImage" />
        <dc:title></dc:title>
      </cc:Work>
    </rdf:RDF>
  </metadata>
  <g
     inkscape:label="Layer 1"
     inkscape:groupmode="layer"
     id="layer1"
     transform="translate(-91.76544,-295.55619)">
    <path
       sodipodi:type="arc"
       style="fill:#2c3e50;fill-opacity:1;stroke:none"
       id="path3942"
       sodipodi:cx="-415.16019"
       sodipodi:cy="511.91122"
       sodipodi:rx="248.23456"
       sodipodi:ry="248.23456"
       d="m -166.92563,511.91122 a 248.23456,248.23456 0 1 1 -496.46911,0 248.23456,248.23456 0 1 1 496.46911,0 z"
       transform="translate(755.16018,31.879525)" />
    <path
       style="fill:none;display:inline"
       d="m 330.76852,547.00772 c -2.51733,-0.40669 -5.29623,-0.94379 -6.1753,-1.19359 -1.37395,-0.39038 -4.87191,-5.43408 -24.91757,-35.92863 l -23.31926,-35.47448 12.89585,-5.15452 c 10.84675,-4.33548 15.1719,-6.42715 27.2202,-13.16384 7.8784,-4.40513 14.21235,-8.12134 14.07543,-8.25825 -0.25481,-0.25483 -37.60748,-3.85898 -40.31813,-3.8903 -1.96518,-0.0228 -1.57054,-0.75951 3.12072,-5.82651 7.91981,-8.55412 18.90711,-15.16122 30.4775,-18.32729 4.55628,-1.24676 14.80599,-2.63966 15.35849,-2.08716 0.20364,0.20363 0.48629,29.57032 0.62811,65.25928 l 0.25787,64.88902 -2.36345,-0.0522 c -1.2999,-0.0288 -4.4231,-0.38487 -6.94045,-0.79155 z"
       id="path3077-0"
       inkscape:connector-curvature="0" />
    <path
       style="fill:#000000;fill-opacity:1;stroke:none;display:inline"
       d="m 322.69446,547.28007 c 0,0 -17.65785,11.05861 -29.21197,11.71171 -7.22673,0.4085 -17.28465,0.29439 -25.67288,-1.76626 -8.38822,-2.06065 -15.10676,-6.06784 -21.03939,-10.21469 -6.29673,-4.40135 -10.36399,-11.54048 -14.00021,-18.30796 -2.3374,-4.35024 -4.84622,-14.00022 -4.84622,-14.00022 0,0 7.36828,7.43248 12.11557,8.88476 4.4922,1.37422 9.00703,0.53792 12.65404,-2.42313 5.72841,-4.65095 5.33549,-12.2739 6.73086,-19.51952 1.73409,-9.00435 1.01321,-18.26658 2.42313,-27.32734 1.33868,-8.60312 2.53517,-17.53707 6.46163,-25.30809 1.15044,-2.27688 6.36925,-7.35098 6.36925,-7.35098 l 54.2086,6.54328 c 0,0 -17.42023,10.547 -26.58695,14.94254 -8.78702,4.21348 -27.12541,10.90401 -27.12541,10.90401 z"
       id="path3022-9"
       inkscape:connector-curvature="0"
       sodipodi:nodetypes="csssscsssssccscc" />
    <path
       sodipodi:type="arc"
       style="fill:#e9c29c;fill-opacity:1;stroke:#e9c29c;stroke-opacity:1;display:inline"
       id="path3020-2"
       sodipodi:cx="186.57977"
       sodipodi:cy="505.18036"
       sodipodi:rx="65.962547"
       sodipodi:ry="65.962547"
       d="m 186.57977,571.14291 a 65.962547,65.962547 0 1 1 0,-131.9251"
       transform="translate(154.15344,-22.516678)"
       sodipodi:start="1.5707963"
       sodipodi:end="4.712389"
       sodipodi:open="true" />
    <path
       sodipodi:type="arc"
       style="fill:#000000;stroke:none;display:inline"
       id="path3849-5"
       sodipodi:cx="100.89577"
       sodipodi:cy="445.61212"
       sodipodi:rx="8.1443548"
       sodipodi:ry="8.1443548"
       d="m 109.04012,445.61212 a 8.1443548,8.1443548 0 1 1 -16.288708,0 8.1443548,8.1443548 0 1 1 16.288708,0 z"
       transform="matrix(1.1050599,0,0,1.1050599,206.47964,-16.293272)" />
    <path
       sodipodi:type="arc"
       style="fill:#ffffff;stroke:none;display:inline"
       id="path3849-4-0"
       sodipodi:cx="100.89577"
       sodipodi:cy="445.61212"
       sodipodi:rx="2.8269663"
       sodipodi:ry="2.8269663"
       d="m 103.72273,445.61212 a 2.8269663,2.8269663 0 1 1 -5.653929,0 2.8269663,2.8269663 0 1 1 5.653929,0 z"
       transform="translate(220.85637,27.628447)" />
    <path
       style="fill:#e9c29c;fill-opacity:1;stroke:none;display:inline"
       d="m 304.48561,690.48011 -9.02217,45.12975 c 0,0 -10.7964,-1.87556 -15.21178,-4.84622 -5.23401,-3.52147 -9.8499,-8.65122 -12.11556,-14.53869 -2.41934,-6.2868 -0.52214,-20.19262 -0.52214,-20.19262 z"
       id="path3869-3"
       inkscape:connector-curvature="0"
       sodipodi:nodetypes="ccsscc" />
    <path
       style="fill:#ffaacc;stroke:none;display:inline"
       d="m 340.42566,562.1553 0,133.6078 -37.0871,-0.33655 14.26944,-109.44397 9.08667,-23.75998 z"
       id="path3796-2"
       inkscape:connector-curvature="0"
       sodipodi:nodetypes="cccccc" />
    <path
       style="fill:#ff5599;stroke:none;display:inline"
       d="m 324.00232,586.99221 -20.68348,108.50165 -35.58659,0.53847 8.61551,-63.80866 10.36554,-41.79872 c 0,0 5.18047,-16.19098 11.17325,-21.47148 3.76894,-3.32097 14.26945,-4.84622 14.26945,-4.84622 l 14.53867,-2.15389 z"
       id="path3024-0"
       inkscape:connector-curvature="0"
       sodipodi:nodetypes="cccccsccc" />
    <path
       style="fill:#efd050;fill-opacity:1;stroke:none;display:inline"
       d="m 340.29104,695.35925 0,42.87565 c 0,0 -16.5645,0.75957 -24.83692,0.40385 -3.51516,-0.15115 -7.02865,-0.50438 -10.50016,-1.07694 -3.17912,-0.52434 -9.566,-1.86831 -9.566,-1.86831 l 7.88329,-40.40155 z"
       id="path3798-7"
       inkscape:connector-curvature="0"
       sodipodi:nodetypes="ccssccc" />
    <path
       style="fill:#efd050;fill-opacity:1;stroke:none;display:inline"
       d="m 334.75046,566.3939 c -2.56636,-3.50869 -6.63246,-5.69023 -10.37559,-7.90068 -1.2844,-0.75849 -2.60242,-1.86141 -4.09312,-1.80859 -1.82985,0.0648 -3.68143,1.16435 -4.85463,2.5701 -0.87446,1.04779 -1.023,2.55495 -1.23746,3.90275 -0.58339,3.66638 -0.50266,7.44703 -0.0953,11.1371 0.15374,1.39232 0.19044,2.91737 0.95189,4.09312 0.5416,0.83627 1.43245,1.49978 2.37972,1.80858 1.53883,0.50166 3.28073,0.2822 4.85464,-0.0952 4.38836,-1.05226 9.03851,-2.66601 12.18419,-5.9017 0.97015,-0.99792 1.65785,-2.4169 1.7134,-3.80755 0.0565,-1.41397 -0.59243,-2.85577 -1.42784,-3.99794 z"
       id="path3820-6"
       inkscape:connector-curvature="0"
       sodipodi:nodetypes="ssssssssssss" />
    <path
       style="fill:#edc92c;fill-opacity:1;stroke:none;display:inline"
       d="m 330.67367,357.70041 2.47492,51.21162 -9.04294,24.27318 -38.5515,-2.37973 c 0,0 -1.45361,-9.5037 -1.33265,-13.80238 0.16687,-5.92982 0.99661,-12.5076 2.37972,-18.27627 1.17908,-4.9177 2.48834,-9.80851 4.66425,-14.37354 2.19682,-4.60876 5.76969,-9.09938 9.23333,-12.8505 2.26016,-2.44763 5.42097,-4.19363 8.28144,-5.90163 2.79126,-1.66675 5.1571,-3.08062 7.90067,-4.28362 2.33415,-1.02338 5.20812,-1.80788 7.23436,-2.47488 2.41957,-0.7965 6.7584,-1.14225 6.7584,-1.14225 z"
       id="path3824-3"
       inkscape:connector-curvature="0"
       sodipodi:nodetypes="ccccsssssasc" />
    <path
       style="fill:#efd050;fill-opacity:1;stroke:none;display:inline"
       d="m 340.38295,429.75841 0,-80.9105 c 0,0 -4.55955,0.7425 -5.9969,1.99887 -3.33669,2.91663 -4.94311,7.624 -6.66321,11.70825 -2.59515,6.162 -3.45667,12.68975 -4.85465,19.22813 -1.20473,5.63462 -1.9356,11.38275 -2.28453,17.13405 -0.3382,5.57452 -0.34775,11.19446 0.19038,16.75325 0.30463,3.14681 0.7545,6.31592 1.7134,9.32851 0.59418,1.86675 2.47491,5.33058 2.47491,5.33058 z"
       id="path3822-1"
       inkscape:connector-curvature="0"
       sodipodi:nodetypes="ccsssssscc" />
    <path
       sodipodi:nodetypes="csccscc"
       inkscape:connector-curvature="0"
       id="path3826-8"
       d="m 261.84739,474.31742 c 0,0 2.05922,-17.63226 5.98568,-25.40327 1.15044,-2.27689 6.8452,-7.2558 6.8452,-7.2558 l 54.2086,6.54328 c 0,0 -17.42023,10.547 -26.58695,14.94254 -8.78702,4.21348 -27.12541,10.90401 -27.12541,10.90401 z"
       style="fill:#000000;fill-opacity:1;stroke:none;display:inline" />
    <path
       style="fill:#dbb626;fill-opacity:1;stroke:none;display:inline"
       d="m 340.46396,429.89367 c 0,0 -19.74454,0.83164 -30.1543,0.53846 -7.65111,-0.21547 -23.82729,-0.40385 -23.82729,-0.40385 0,0 -7.70105,0.44098 -11.34052,2.35103 -1.76444,0.92599 -4.2861,2.48702 -4.15005,4.47504 0.18636,2.72312 2.83257,5.19529 5.19432,6.56359 5.51833,3.19712 19.04639,4.78369 19.04639,4.78369 0,0 14.93798,1.52458 22.34649,2.01928 7.52182,0.50226 22.91692,0.87909 22.91692,0.87909 z"
       id="path3079-8"
       inkscape:connector-curvature="0"
       sodipodi:nodetypes="cscssscscc" />
    <path
       style="fill:none;stroke:#000000;stroke-width:3;stroke-linecap:round;stroke-linejoin:miter;stroke-miterlimit:4;stroke-opacity:1;stroke-dasharray:none;display:inline"
       d="m 314.34819,470.54813 -2.82698,-1.75002 -2.01925,-2.2885"
       id="path3828-2"
       inkscape:connector-curvature="0" />
    <path
       sodipodi:type="arc"
       style="fill:none;stroke:#000000;stroke-width:3;stroke-linecap:round;stroke-miterlimit:4;stroke-opacity:1;stroke-dasharray:none;display:inline"
       id="path3835-6"
       sodipodi:cx="105.62034"
       sodipodi:cy="481.27509"
       sodipodi:rx="30.785357"
       sodipodi:ry="14.278335"
       d="M 109.87596,495.41634 A 30.785357,14.278335 0 0 1 78.959437,488.41425"
       transform="translate(233.20025,29.679447)"
       sodipodi:start="1.4321171"
       sodipodi:end="2.6179939"
       sodipodi:open="true" />
    <path
       inkscape:connector-curvature="0"
       id="path3908"
       d="m 349.23147,547.00772 c 2.51734,-0.40669 5.29624,-0.94379 6.1753,-1.19359 1.37395,-0.39038 4.87192,-5.43408 24.91758,-35.92863 l 23.31926,-35.47448 -12.89585,-5.15452 c -10.84675,-4.33548 -15.1719,-6.42715 -27.2202,-13.16384 -7.8784,-4.40513 -14.21235,-8.12134 -14.07544,-8.25825 0.25482,-0.25483 37.60749,-3.85898 40.31814,-3.8903 1.96518,-0.0228 1.57054,-0.75951 -3.12072,-5.82651 -7.91982,-8.55412 -18.90712,-15.16122 -30.4775,-18.32729 -4.55628,-1.24676 -14.80599,-2.63966 -15.35849,-2.08716 -0.20364,0.20363 -0.48629,29.57032 -0.62811,65.25928 l -0.25787,64.88902 2.36345,-0.0522 c 1.2999,-0.0288 4.4231,-0.38487 6.94045,-0.79155 z"
       style="fill:none;display:inline" />
    <path
       sodipodi:nodetypes="csssscsssssccscc"
       inkscape:connector-curvature="0"
       id="path3910"
       d="m 357.30554,547.28007 c 0,0 17.65785,11.05861 29.21197,11.71171 7.22673,0.4085 17.28465,0.29439 25.67288,-1.76626 8.38822,-2.06065 15.10676,-6.06784 21.03938,-10.21469 6.29674,-4.40135 10.364,-11.54048 14.00022,-18.30796 2.3374,-4.35024 4.84622,-14.00022 4.84622,-14.00022 0,0 -7.36829,7.43248 -12.11557,8.88476 -4.4922,1.37422 -9.00703,0.53792 -12.65404,-2.42313 -5.72841,-4.65095 -5.33549,-12.2739 -6.73086,-19.51952 -1.73409,-9.00435 -1.01322,-18.26658 -2.42313,-27.32734 -1.33868,-8.60312 -2.53517,-17.53707 -6.46163,-25.30809 -1.15044,-2.27688 -6.36925,-7.35098 -6.36925,-7.35098 l -54.2086,6.54328 c 0,0 17.42023,10.547 26.58695,14.94254 8.78702,4.21348 27.12541,10.90401 27.12541,10.90401 z"
       style="fill:#000000;fill-opacity:1;stroke:none;display:inline" />
    <path
       sodipodi:open="true"
       sodipodi:end="4.712389"
       sodipodi:start="1.5707963"
       transform="matrix(-1,0,0,1,525.84656,-22.516678)"
       d="m 186.57977,571.14291 a 65.962547,65.962547 0 1 1 0,-131.9251"
       sodipodi:ry="65.962547"
       sodipodi:rx="65.962547"
       sodipodi:cy="505.18036"
       sodipodi:cx="186.57977"
       id="path3912"
       style="fill:#e9c29c;fill-opacity:1;stroke:#e9c29c;stroke-opacity:1;display:inline"
       sodipodi:type="arc" />
    <path
       transform="matrix(-1.1050599,0,0,1.1050599,473.52036,-16.293272)"
       d="m 109.04012,445.61212 a 8.1443548,8.1443548 0 1 1 -16.288708,0 8.1443548,8.1443548 0 1 1 16.288708,0 z"
       sodipodi:ry="8.1443548"
       sodipodi:rx="8.1443548"
       sodipodi:cy="445.61212"
       sodipodi:cx="100.89577"
       id="path3914"
       style="fill:#000000;stroke:none;display:inline"
       sodipodi:type="arc" />
    <path
       transform="matrix(-1,0,0,1,463.14362,27.628447)"
       d="m 103.72273,445.61212 a 2.8269663,2.8269663 0 1 1 -5.653929,0 2.8269663,2.8269663 0 1 1 5.653929,0 z"
       sodipodi:ry="2.8269663"
       sodipodi:rx="2.8269663"
       sodipodi:cy="445.61212"
       sodipodi:cx="100.89577"
       id="path3916"
       style="fill:#ffffff;stroke:none;display:inline"
       sodipodi:type="arc" />
    <path
       sodipodi:nodetypes="ccsscc"
       inkscape:connector-curvature="0"
       id="path3918"
       d="m 375.51439,690.48011 9.02217,45.12975 c 0,0 10.7964,-1.87556 15.21178,-4.84622 5.23401,-3.52147 9.8499,-8.65122 12.11556,-14.53869 2.41934,-6.2868 0.52214,-20.19262 0.52214,-20.19262 z"
       style="fill:#e9c29c;fill-opacity:1;stroke:none;display:inline" />
    <path
       sodipodi:nodetypes="cccccc"
       inkscape:connector-curvature="0"
       id="path3920"
       d="m 339.57434,562.1553 0,133.6078 37.0871,-0.33655 L 362.392,585.98258 353.30532,562.2226 z"
       style="fill:#ffaacc;stroke:none;display:inline" />
    <path
       sodipodi:nodetypes="cccccsccc"
       inkscape:connector-curvature="0"
       id="path3922"
       d="m 355.99767,586.99221 20.68349,108.50165 35.58659,0.53847 -8.61551,-63.80866 -10.36554,-41.79872 c 0,0 -5.18048,-16.19098 -11.17325,-21.47148 -3.76894,-3.32097 -14.26945,-4.84622 -14.26945,-4.84622 l -14.53868,-2.15389 z"
       style="fill:#ff5599;stroke:none;display:inline" />
    <path
       sodipodi:nodetypes="ccssccc"
       inkscape:connector-curvature="0"
       id="path3924"
       d="m 339.70896,695.35925 0,42.87565 c 0,0 16.5645,0.75957 24.83691,0.40385 3.51517,-0.15115 7.02865,-0.50438 10.50017,-1.07694 3.17912,-0.52434 9.566,-1.86831 9.566,-1.86831 l -7.88329,-40.40155 z"
       style="fill:#efd050;fill-opacity:1;stroke:none;display:inline" />
    <path
       transform="matrix(-1,0,0,1,440.84972,124.63692)"
       d="m 104.6121,445.61212 a 3.7163301,3.7163301 0 1 1 -7.432663,0 3.7163301,3.7163301 0 1 1 7.432663,0 z"
       sodipodi:ry="3.7163301"
       sodipodi:rx="3.7163301"
       sodipodi:cy="445.61212"
       sodipodi:cx="100.89577"
       id="path3926"
       style="fill:#efd050;fill-opacity:1;stroke:none;display:inline"
       sodipodi:type="arc" />
    <path
       sodipodi:nodetypes="ssssssssssss"
       inkscape:connector-curvature="0"
       id="path3928"
       d="m 345.24954,566.3939 c 2.56636,-3.50869 6.63246,-5.69023 10.37559,-7.90068 1.28439,-0.75849 2.60242,-1.86141 4.09312,-1.80859 1.82985,0.0648 3.68142,1.16435 4.85462,2.5701 0.87447,1.04779 1.023,2.55495 1.23747,3.90275 0.58338,3.66638 0.50266,7.44703 0.0953,11.1371 -0.15374,1.39232 -0.19044,2.91737 -0.95189,4.09312 -0.5416,0.83627 -1.43245,1.49978 -2.37972,1.80858 -1.53883,0.50166 -3.28073,0.2822 -4.85464,-0.0952 -4.38837,-1.05226 -9.03852,-2.66601 -12.18419,-5.9017 -0.97015,-0.99792 -1.65785,-2.4169 -1.7134,-3.80755 -0.0565,-1.41397 0.59242,-2.85577 1.42784,-3.99794 z"
       style="fill:#efd050;fill-opacity:1;stroke:none;display:inline" />
    <path
       sodipodi:nodetypes="ccccsssssasc"
       inkscape:connector-curvature="0"
       id="path3930"
       d="m 349.32632,357.70041 -2.47491,51.21162 9.04294,24.27318 38.5515,-2.37973 c 0,0 1.45361,-9.5037 1.33265,-13.80238 -0.16688,-5.92982 -0.99661,-12.5076 -2.37973,-18.27627 -1.17907,-4.9177 -2.48833,-9.80851 -4.66425,-14.37354 -2.19681,-4.60876 -5.76968,-9.09938 -9.23332,-12.8505 -2.26016,-2.44763 -5.42098,-4.19363 -8.28144,-5.90163 -2.79126,-1.66675 -5.1571,-3.08062 -7.90067,-4.28362 -2.33415,-1.02338 -5.20812,-1.80788 -7.23437,-2.47488 -2.41956,-0.7965 -6.7584,-1.14225 -6.7584,-1.14225 z"
       style="fill:#e0b500;fill-opacity:1;stroke:none;display:inline" />
    <path
       sodipodi:nodetypes="ccsssssscc"
       inkscape:connector-curvature="0"
       id="path3932"
       d="m 339.33149,429.94878 0.28556,-81.10087 c 0,0 4.55955,0.7425 5.9969,1.99887 3.33669,2.91663 4.94311,7.624 6.66321,11.70825 2.59515,6.162 3.45667,12.68975 4.85465,19.22813 1.20473,5.63462 1.9356,11.38275 2.28453,17.13405 0.3382,5.57452 0.34775,11.19446 -0.19038,16.75325 -0.30464,3.14681 -0.7545,6.31592 -1.7134,9.32851 -0.59418,1.86675 -2.47491,5.33058 -2.47491,5.33058 z"
       style="fill:#edc92c;fill-opacity:1;stroke:none;display:inline" />
    <path
       style="fill:#000000;fill-opacity:1;stroke:none;display:inline"
       d="m 418.15261,474.31742 c 0,0 -2.05922,-17.63226 -5.98569,-25.40327 -1.15043,-2.27689 -6.8452,-7.2558 -6.8452,-7.2558 l -54.2086,6.54328 c 0,0 17.42024,10.547 26.58696,14.94254 8.78702,4.21348 27.12541,10.90401 27.12541,10.90401 z"
       id="path3934"
       inkscape:connector-curvature="0"
       sodipodi:nodetypes="csccscc" />
    <path
       sodipodi:nodetypes="cscssscscc"
       inkscape:connector-curvature="0"
       id="path3936"
       d="m 338.77452,429.89367 c 0,0 20.50605,0.83164 30.91582,0.53846 7.65111,-0.21547 23.82728,-0.40385 23.82728,-0.40385 0,0 7.70105,0.44098 11.34053,2.35103 1.76444,0.92599 4.2861,2.48702 4.15005,4.47504 -0.18636,2.72312 -2.83258,5.19529 -5.19433,6.56359 -5.51832,3.19712 -19.04638,4.78369 -19.04638,4.78369 0,0 -14.93798,1.52458 -22.34649,2.01928 -7.52183,0.50226 -22.91693,0.87909 -22.91693,0.87909 z"
       style="fill:#dbb626;fill-opacity:1;stroke:none;display:inline" />
    <path
       inkscape:connector-curvature="0"
       id="path3938"
       d="m 365.65181,470.54813 2.82698,-1.75002 2.01925,-2.2885"
       style="fill:none;stroke:#000000;stroke-width:3;stroke-linecap:round;stroke-linejoin:miter;stroke-miterlimit:4;stroke-opacity:1;stroke-dasharray:none;display:inline" />
    <path
       sodipodi:open="true"
       sodipodi:end="2.6179939"
       sodipodi:start="1.4947797"
       transform="matrix(-1,0,0,1,446.79975,29.679447)"
       d="M 107.95828,495.51219 A 30.785357,14.278335 0 0 1 78.959437,488.41425"
       sodipodi:ry="14.278335"
       sodipodi:rx="30.785357"
       sodipodi:cy="481.27509"
       sodipodi:cx="105.62034"
       id="path3940"
       style="fill:none;stroke:#000000;stroke-width:3;stroke-linecap:round;stroke-miterlimit:4;stroke-opacity:1;stroke-dasharray:none;display:inline"
       sodipodi:type="arc" />
  </g>
</svg>
