<?xml version="1.0" encoding="UTF-8" standalone="no"?>
<!-- Created with Inkscape (http://www.inkscape.org/) -->

<svg
   xmlns:dc="http://purl.org/dc/elements/1.1/"
   xmlns:cc="http://creativecommons.org/ns#"
   xmlns:rdf="http://www.w3.org/1999/02/22-rdf-syntax-ns#"
   xmlns:svg="http://www.w3.org/2000/svg"
   xmlns="http://www.w3.org/2000/svg"
   xmlns:sodipodi="http://sodipodi.sourceforge.net/DTD/sodipodi-0.dtd"
   xmlns:inkscape="http://www.inkscape.org/namespaces/inkscape"
   width="496.46912"
   height="496.46912"
   id="svg4016"
   version="1.1"
   inkscape:version="0.48.4 r9939"
   sodipodi:docname="female-engineer-solo.svg"
   inkscape:export-filename="/home/moorepants/Websites/eme185-splash/content/images/female-engineer-solo.png"
   inkscape:export-xdpi="46.407719"
   inkscape:export-ydpi="46.407719">
  <defs
     id="defs4018" />
  <sodipodi:namedview
     id="base"
     pagecolor="#ffffff"
     bordercolor="#666666"
     borderopacity="1.0"
     inkscape:pageopacity="0.0"
     inkscape:pageshadow="2"
     inkscape:zoom="1.4240564"
     inkscape:cx="124.64394"
     inkscape:cy="248.23456"
     inkscape:document-units="px"
     inkscape:current-layer="layer1"
     showgrid="false"
     fit-margin-top="0"
     fit-margin-left="0"
     fit-margin-right="0"
     fit-margin-bottom="0"
     inkscape:window-width="840"
     inkscape:window-height="998"
     inkscape:window-x="529"
     inkscape:window-y="24"
     inkscape:window-maximized="0" />
  <metadata
     id="metadata4021">
    <rdf:RDF>
      <cc:Work
         rdf:about="">
        <dc:format>image/svg+xml</dc:format>
        <dc:type
           rdf:resource="http://purl.org/dc/dcmitype/StillImage" />
        <dc:title></dc:title>
      </cc:Work>
    </rdf:RDF>
  </metadata>
  <g
     inkscape:label="Layer 1"
     inkscape:groupmode="layer"
     id="layer1"
     transform="translate(-91.76544,-295.55619)">
    <g
       transform="matrix(1.25,0,0,-1.25,843.15071,817.8719)"
       style="display:inline"
       id="g3979">
      <path
         transform="matrix(0.8,0,0,-0.8,-70.39242,628.7939)"
         d="m -166.92563,511.91122 c 0,137.09617 -111.1384,248.23456 -248.23456,248.23456 -137.09616,0 -248.23455,-111.13839 -248.23455,-248.23456 0,-137.09616 111.13839,-248.23455 248.23455,-248.23455 137.09616,0 248.23456,111.13839 248.23456,248.23455 z"
         sodipodi:ry="248.23456"
         sodipodi:rx="248.23456"
         sodipodi:cy="511.91122"
         sodipodi:cx="-415.16019"
         id="path3942"
         style="fill:#2c3e50;fill-opacity:1;stroke:none"
         sodipodi:type="arc" />
      <g
         transform="translate(2.0755906,-2.671009)"
         id="g3944">
        <path
           style="fill:none;display:inline"
           d="m -411.98134,219.36235 c -2.01387,0.32535 -4.23699,0.75503 -4.94024,0.95487 -1.09916,0.31231 -3.89753,4.34727 -19.93406,28.74291 l -18.65541,28.37958 10.31668,4.12362 c 8.6774,3.46838 12.13752,5.14172 21.77616,10.53107 6.30272,3.5241 11.36988,6.49707 11.26035,6.6066 -0.20385,0.20386 -30.08599,3.08718 -32.25451,3.11224 -1.57214,0.0182 -1.25643,0.60761 2.49658,4.66121 6.33585,6.84329 15.12569,12.12897 24.382,14.66183 3.64502,0.99741 11.84479,2.11173 12.28679,1.66973 0.16291,-0.16291 0.38903,-23.65626 0.50249,-52.20743 l 0.20629,-51.91121 -1.89076,0.0418 c -1.03992,0.023 -3.53848,0.30789 -5.55236,0.63324 z"
           id="path3077-0"
           inkscape:connector-curvature="0" />
        <path
           style="fill:#492a15;fill-opacity:1;stroke:none;display:inline"
           d="m -418.44059,219.14447 c 0,0 -14.12628,-8.84689 -23.36958,-9.36937 -5.78138,-0.3268 -13.82772,-0.23551 -20.5383,1.41301 -6.71058,1.64852 -12.08541,4.85427 -16.83151,8.17175 -5.03739,3.52108 -8.2912,9.23239 -11.20017,14.64637 -1.86992,3.48019 -3.87698,11.20018 -3.87698,11.20018 0,0 5.89463,-5.94599 9.69246,-7.10781 3.59376,-1.09938 7.20562,-0.43034 10.12323,1.9385 4.58273,3.72076 4.26839,9.81912 5.38469,15.61562 1.38727,7.20348 0.81057,14.61326 1.9385,21.86187 1.07095,6.8825 2.02814,14.02966 5.16931,20.24647 0.92035,1.82151 5.0954,5.88079 5.0954,5.88079 l 43.36688,-5.23463 c 0,0 -13.93619,-8.4376 -21.26956,-11.95403 -7.02962,-3.37078 -21.70033,-8.72321 -21.70033,-8.72321 z"
           id="path3022-9"
           inkscape:connector-curvature="0"
           sodipodi:nodetypes="csssscsssssccscc" />
        <path
           sodipodi:type="arc"
           style="fill:#e9c29c;fill-opacity:1;stroke:#e9c29c;stroke-opacity:1;display:inline"
           id="path3020-2"
           sodipodi:cx="186.57977"
           sodipodi:cy="505.18036"
           sodipodi:rx="65.962547"
           sodipodi:ry="65.962547"
           d="m 186.57977,571.14291 c -36.4301,0 -65.96254,-29.53244 -65.96254,-65.96255 -1e-5,-36.43011 29.53243,-65.96255 65.96254,-65.96255 0,0 0,0 0,0"
           transform="matrix(0.8,0,0,-0.8,-553.27341,674.98187)"
           sodipodi:start="1.5707963"
           sodipodi:end="4.712389"
           sodipodi:open="true" />
        <path
           sodipodi:type="arc"
           style="fill:#000000;stroke:none;display:inline"
           id="path3849-5"
           sodipodi:cx="100.89577"
           sodipodi:cy="445.61212"
           sodipodi:rx="8.1443548"
           sodipodi:ry="8.1443548"
           d="m 109.04012,445.61212 c 0,4.498 -3.64635,8.14436 -8.14435,8.14436 -4.498006,0 -8.144358,-3.64636 -8.144358,-8.14436 0,-4.498 3.646352,-8.14435 8.144358,-8.14435 4.498,0 8.14435,3.64635 8.14435,8.14435 z"
           transform="matrix(0.8,0,0,-0.8,-501.25724,632.55037)" />
        <path
           sodipodi:type="arc"
           style="fill:#ffffff;stroke:none;display:inline"
           id="path3849-4-0"
           sodipodi:cx="100.89577"
           sodipodi:cy="445.61212"
           sodipodi:rx="2.8269663"
           sodipodi:ry="2.8269663"
           d="m 103.72273,445.61212 c 0,1.56129 -1.26567,2.82697 -2.82696,2.82697 -1.561293,0 -2.826969,-1.26568 -2.826969,-2.82697 0,-1.56129 1.265676,-2.82696 2.826969,-2.82696 1.56129,0 2.82696,1.26567 2.82696,2.82696 z"
           transform="matrix(0.8,0,0,-0.8,-499.91106,634.86577)" />
        <path
           style="fill:#e9c29c;fill-opacity:1;stroke:none;display:inline"
           d="m -433.00767,104.58444 -7.21774,-36.103802 c 0,0 -8.63712,1.50045 -12.16942,3.87698 -4.18721,2.81717 -7.87992,6.92097 -9.69245,11.63095 -1.93547,5.02944 -0.41771,16.154092 -0.41771,16.154092 z"
           id="path3869-3"
           inkscape:connector-curvature="0"
           sodipodi:nodetypes="ccsscc" />
        <path
           style="fill:#ffaacc;stroke:none;display:inline"
           d="m -404.25563,207.24429 0,-106.88624 -29.66968,0.26924 11.41555,87.55517 7.26934,19.00799 z"
           id="path3796-2"
           inkscape:connector-curvature="0"
           sodipodi:nodetypes="cccccc" />
        <path
           style="fill:#ff5599;stroke:none;display:inline"
           d="m -417.3943,187.37476 -16.54679,-86.80132 -28.46927,-0.43078 6.89241,51.04693 8.29243,33.43898 c 0,0 4.14438,12.95278 8.9386,17.17718 3.01515,2.65678 11.41556,3.87698 11.41556,3.87698 l 11.63094,1.72311 z"
           id="path3024-0"
           inkscape:connector-curvature="0"
           sodipodi:nodetypes="cccccsccc" />
        <path
           style="fill:#efd050;fill-opacity:1;stroke:none;display:inline"
           d="m -404.36333,100.68113 0,-34.300522 c 0,0 -13.2516,-0.60766 -19.86953,-0.32308 -2.81213,0.12092 -5.62292,0.4035 -8.40013,0.86155 -2.5433,0.41947 -7.6528,1.49465 -7.6528,1.49465 l 6.30663,32.321242 z"
           id="path3798-7"
           inkscape:connector-curvature="0"
           sodipodi:nodetypes="ccssccc" />
        <path
           style="fill:#efd050;fill-opacity:1;stroke:none;display:inline"
           d="m -408.79579,203.85341 c -2.05309,2.80695 -5.30597,4.55218 -8.30047,6.32054 -1.02752,0.60679 -2.08194,1.48913 -3.2745,1.44687 -1.46388,-0.0518 -2.94514,-0.93148 -3.8837,-2.05608 -0.69957,-0.83823 -0.8184,-2.04396 -0.98997,-3.1222 -0.46671,-2.9331 -0.40213,-5.95762 -0.0762,-8.90968 0.12299,-1.11385 0.15235,-2.33389 0.76151,-3.27449 0.43328,-0.66902 1.14596,-1.19983 1.90378,-1.44687 1.23106,-0.40132 2.62458,-0.22576 3.88371,0.0762 3.51069,0.8418 7.23081,2.1328 9.74735,4.72136 0.77612,0.79833 1.32628,1.93352 1.37072,3.04604 0.0452,1.13117 -0.47394,2.28461 -1.14227,3.19835 z"
           id="path3820-6"
           inkscape:connector-curvature="0"
           sodipodi:nodetypes="ssssssssssss" />
        <path
           style="fill:#edc92c;fill-opacity:1;stroke:none;display:inline"
           d="m -412.05722,370.8082 1.97993,-40.9693 -7.23435,-19.41854 -30.8412,1.90378 c 0,0 -1.16289,7.60296 -1.06612,11.04191 0.1335,4.74385 0.79729,10.00608 1.90378,14.62101 0.94326,3.93416 1.99067,7.84681 3.7314,11.49884 1.75745,3.687 4.61575,7.2795 7.38666,10.2804 1.80813,1.9581 4.33678,3.3549 6.62515,4.7213 2.23301,1.3334 4.12568,2.4645 6.32054,3.4269 1.86732,0.8187 4.16649,1.4463 5.78749,1.9799 1.93565,0.6372 5.40672,0.9138 5.40672,0.9138 z"
           id="path3824-3"
           inkscape:connector-curvature="0"
           sodipodi:nodetypes="ccccsssssasc" />
        <path
           style="fill:#efd050;fill-opacity:1;stroke:none;display:inline"
           d="m -404.2898,313.1618 0,64.7284 c 0,0 -3.64764,-0.594 -4.79752,-1.5991 -2.66935,-2.3333 -3.95449,-6.0992 -5.33057,-9.3666 -2.07612,-4.9296 -2.76533,-10.1518 -3.88372,-15.3825 -0.96378,-4.5077 -1.54848,-9.1062 -1.82762,-13.70724 -0.27056,-4.45962 -0.2782,-8.95557 0.1523,-13.4026 0.24371,-2.51745 0.6036,-5.05274 1.37072,-7.46281 0.47535,-1.4934 1.97993,-4.26446 1.97993,-4.26446 z"
           id="path3822-1"
           inkscape:connector-curvature="0"
           sodipodi:nodetypes="ccsssssscc" />
        <path
           sodipodi:nodetypes="csccscc"
           inkscape:connector-curvature="0"
           id="path3826-8"
           d="m -467.11825,277.51459 c 0,0 1.64738,14.10581 4.78855,20.32262 0.92035,1.82151 5.47616,5.80464 5.47616,5.80464 l 43.36688,-5.23463 c 0,0 -13.93619,-8.4376 -21.26956,-11.95403 -7.02962,-3.37078 -21.70033,-8.72321 -21.70033,-8.72321 z"
           style="fill:#492a15;fill-opacity:1;stroke:none;display:inline" />
        <path
           style="fill:#dbb626;fill-opacity:1;stroke:none;display:inline"
           d="m -404.22499,313.05359 c 0,0 -15.79563,-0.66531 -24.12344,-0.43077 -6.12089,0.17238 -19.06183,0.32308 -19.06183,0.32308 0,0 -6.16084,-0.35278 -9.07242,-1.88082 -1.41155,-0.74079 -3.42888,-1.98962 -3.32004,-3.58003 0.14909,-2.1785 2.26606,-4.15623 4.15546,-5.25087 4.41466,-2.5577 15.23711,-3.82696 15.23711,-3.82696 0,0 11.95038,-1.21966 17.87719,-1.61542 6.01746,-0.40181 18.33354,-0.70327 18.33354,-0.70327 z"
           id="path3079-8"
           inkscape:connector-curvature="0"
           sodipodi:nodetypes="cscssscscc" />
        <path
           style="fill:none;stroke:#000000;stroke-width:2.4000001;stroke-linecap:round;stroke-linejoin:miter;stroke-miterlimit:4;stroke-opacity:1;stroke-dasharray:none;display:inline"
           d="m -425.11761,280.53002 -2.26158,1.40002 -1.6154,1.8308"
           id="path3828-2"
           inkscape:connector-curvature="0" />
        <path
           sodipodi:type="arc"
           style="fill:none;stroke:#000000;stroke-width:2;stroke-linecap:round;stroke-miterlimit:4;stroke-opacity:1;stroke-dasharray:none;display:inline"
           id="path3835-6"
           sodipodi:cx="105.62034"
           sodipodi:cy="481.27509"
           sodipodi:rx="30.785357"
           sodipodi:ry="14.278335"
           d="m 109.87596,495.41634 c -12.418369,0.80391 -24.647151,-1.96571 -30.916523,-7.00209"
           transform="matrix(0.8,0,0,-0.8,-490.03596,633.22497)"
           sodipodi:start="1.4321171"
           sodipodi:end="2.6179939"
           sodipodi:open="true" />
        <path
           inkscape:connector-curvature="0"
           id="path3908"
           d="m -397.21098,219.36235 c 2.01387,0.32535 4.23699,0.75503 4.94024,0.95487 1.09916,0.31231 3.89753,4.34727 19.93406,28.74291 l 18.65541,28.37958 -10.31668,4.12362 c -8.6774,3.46838 -12.13752,5.14172 -21.77616,10.53107 -6.30272,3.5241 -11.36988,6.49707 -11.26035,6.6066 0.20385,0.20386 30.08599,3.08718 32.25451,3.11224 1.57214,0.0182 1.25643,0.60761 -2.49658,4.66121 -6.33585,6.84329 -15.12569,12.12897 -24.382,14.66183 -3.64502,0.99741 -11.84479,2.11173 -12.28679,1.66973 -0.16291,-0.16291 -0.38903,-23.65626 -0.50249,-52.20743 l -0.20629,-51.91121 1.89076,0.0418 c 1.03992,0.023 3.53848,0.30789 5.55236,0.63324 z"
           style="fill:none;display:inline" />
        <path
           sodipodi:nodetypes="csssscsssssccscc"
           inkscape:connector-curvature="0"
           id="path3910"
           d="m -390.75173,219.14447 c 0,0 14.12628,-8.84689 23.36958,-9.36937 5.78138,-0.3268 13.82772,-0.23551 20.5383,1.41301 6.71058,1.64852 12.08541,4.85427 16.83151,8.17175 5.03739,3.52108 8.2912,9.23239 11.20017,14.64637 1.86992,3.48019 3.87698,11.20018 3.87698,11.20018 0,0 -5.89463,-5.94599 -9.69246,-7.10781 -3.59376,-1.09938 -7.20562,-0.43034 -10.12323,1.9385 -4.58273,3.72076 -4.26839,9.81912 -5.38469,15.61562 -1.38727,7.20348 -0.81057,14.61326 -1.9385,21.86187 -1.07095,6.8825 -2.02814,14.02966 -5.16931,20.24647 -0.92035,1.82151 -5.0954,5.88079 -5.0954,5.88079 l -43.36688,-5.23463 c 0,0 13.93619,-8.4376 21.26956,-11.95403 7.02962,-3.37078 21.70033,-8.72321 21.70033,-8.72321 z"
           style="fill:#492a15;fill-opacity:1;stroke:none;display:inline" />
        <path
           sodipodi:open="true"
           sodipodi:end="4.712389"
           sodipodi:start="1.5707963"
           transform="matrix(-0.8,0,0,-0.8,-255.91891,674.98187)"
           d="m 186.57977,571.14291 c -36.4301,0 -65.96254,-29.53244 -65.96254,-65.96255 -1e-5,-36.43011 29.53243,-65.96255 65.96254,-65.96255 0,0 0,0 0,0"
           sodipodi:ry="65.962547"
           sodipodi:rx="65.962547"
           sodipodi:cy="505.18036"
           sodipodi:cx="186.57977"
           id="path3912"
           style="fill:#e9c29c;fill-opacity:1;stroke:#e9c29c;stroke-opacity:1;display:inline"
           sodipodi:type="arc" />
        <path
           transform="matrix(-0.8,0,0,-0.8,-307.93508,632.55037)"
           d="m 109.04012,445.61212 c 0,4.498 -3.64635,8.14436 -8.14435,8.14436 -4.498006,0 -8.144358,-3.64636 -8.144358,-8.14436 0,-4.498 3.646352,-8.14435 8.144358,-8.14435 4.498,0 8.14435,3.64635 8.14435,8.14435 z"
           sodipodi:ry="8.1443548"
           sodipodi:rx="8.1443548"
           sodipodi:cy="445.61212"
           sodipodi:cx="100.89577"
           id="path3914"
           style="fill:#000000;stroke:none;display:inline"
           sodipodi:type="arc" />
        <path
           transform="matrix(-0.8,0,0,-0.8,-306.08126,634.86577)"
           d="m 103.72273,445.61212 c 0,1.56129 -1.26567,2.82697 -2.82696,2.82697 -1.561293,0 -2.826969,-1.26568 -2.826969,-2.82697 0,-1.56129 1.265676,-2.82696 2.826969,-2.82696 1.56129,0 2.82696,1.26567 2.82696,2.82696 z"
           sodipodi:ry="2.8269663"
           sodipodi:rx="2.8269663"
           sodipodi:cy="445.61212"
           sodipodi:cx="100.89577"
           id="path3916"
           style="fill:#ffffff;stroke:none;display:inline"
           sodipodi:type="arc" />
        <path
           sodipodi:nodetypes="ccsscc"
           inkscape:connector-curvature="0"
           id="path3918"
           d="m -376.18465,104.58444 7.21774,-36.103802 c 0,0 8.63712,1.50045 12.16942,3.87698 4.18721,2.81717 7.87992,6.92097 9.69245,11.63095 1.93547,5.02944 0.41771,16.154092 0.41771,16.154092 z"
           style="fill:#e9c29c;fill-opacity:1;stroke:none;display:inline" />
        <path
           sodipodi:nodetypes="cccccc"
           inkscape:connector-curvature="0"
           id="path3920"
           d="m -404.93669,207.24429 0,-106.88624 29.66968,0.26924 -11.41555,87.55517 -7.26934,19.00799 z"
           style="fill:#ffaacc;stroke:none;display:inline" />
        <path
           sodipodi:nodetypes="cccccsccc"
           inkscape:connector-curvature="0"
           id="path3922"
           d="m -391.79802,187.37476 16.54679,-86.80132 28.46927,-0.43078 -6.89241,51.04693 -8.29243,33.43898 c 0,0 -4.14438,12.95278 -8.9386,17.17718 -3.01515,2.65678 -11.41556,3.87698 -11.41556,3.87698 l -11.63094,1.72311 z"
           style="fill:#ff5599;stroke:none;display:inline" />
        <path
           sodipodi:nodetypes="ccssccc"
           inkscape:connector-curvature="0"
           id="path3924"
           d="m -404.82899,100.68113 0,-34.300522 c 0,0 13.2516,-0.60766 19.86953,-0.32308 2.81213,0.12092 5.62292,0.4035 8.40013,0.86155 2.5433,0.41947 7.6528,1.49465 7.6528,1.49465 l -6.30663,32.321242 z"
           style="fill:#efd050;fill-opacity:1;stroke:none;display:inline" />
        <path
           transform="matrix(-0.8,0,0,-0.8,-323.91638,557.25899)"
           d="m 104.6121,445.61212 c 0,2.05247 -1.66386,3.71633 -3.71633,3.71633 -2.052475,0 -3.716333,-1.66386 -3.716333,-3.71633 0,-2.05247 1.663858,-3.71633 3.716333,-3.71633 2.05247,0 3.71633,1.66386 3.71633,3.71633 z"
           sodipodi:ry="3.7163301"
           sodipodi:rx="3.7163301"
           sodipodi:cy="445.61212"
           sodipodi:cx="100.89577"
           id="path3926"
           style="fill:#efd050;fill-opacity:1;stroke:none;display:inline"
           sodipodi:type="arc" />
        <path
           sodipodi:nodetypes="ssssssssssss"
           inkscape:connector-curvature="0"
           id="path3928"
           d="m -400.39653,203.85341 c 2.05309,2.80695 5.30597,4.55218 8.30047,6.32054 1.02752,0.60679 2.08194,1.48913 3.2745,1.44687 1.46388,-0.0518 2.94514,-0.93148 3.8837,-2.05608 0.69957,-0.83823 0.8184,-2.04396 0.98997,-3.1222 0.46671,-2.9331 0.40213,-5.95762 0.0762,-8.90968 -0.12299,-1.11385 -0.15235,-2.33389 -0.76151,-3.27449 -0.43328,-0.66902 -1.14596,-1.19983 -1.90378,-1.44687 -1.23106,-0.40132 -2.62458,-0.22576 -3.88371,0.0762 -3.51069,0.8418 -7.23081,2.1328 -9.74735,4.72136 -0.77612,0.79833 -1.32628,1.93352 -1.37072,3.04604 -0.0452,1.13117 0.47394,2.28461 1.14227,3.19835 z"
           style="fill:#efd050;fill-opacity:1;stroke:none;display:inline" />
        <path
           sodipodi:nodetypes="ccccsssssasc"
           inkscape:connector-curvature="0"
           id="path3930"
           d="m -397.1351,370.8082 -1.97993,-40.9693 7.23435,-19.41854 30.8412,1.90378 c 0,0 1.16289,7.60296 1.06612,11.04191 -0.1335,4.74385 -0.79729,10.00608 -1.90378,14.62101 -0.94326,3.93416 -1.99067,7.84681 -3.7314,11.49884 -1.75745,3.687 -4.61575,7.2795 -7.38666,10.2804 -1.80813,1.9581 -4.33678,3.3549 -6.62515,4.7213 -2.23301,1.3334 -4.12568,2.4645 -6.32054,3.4269 -1.86732,0.8187 -4.16649,1.4463 -5.78749,1.9799 -1.93565,0.6372 -5.40672,0.9138 -5.40672,0.9138 z"
           style="fill:#e0b500;fill-opacity:1;stroke:none;display:inline" />
        <path
           sodipodi:nodetypes="ccsssssscc"
           inkscape:connector-curvature="0"
           id="path3932"
           d="m -405.13097,313.0095 0.22845,64.8807 c 0,0 3.64764,-0.594 4.79752,-1.5991 2.66935,-2.3333 3.95449,-6.0992 5.33057,-9.3666 2.07612,-4.9296 2.76533,-10.1518 3.88372,-15.3825 0.96378,-4.5077 1.54848,-9.1062 1.82762,-13.70724 0.27056,-4.45962 0.2782,-8.95557 -0.1523,-13.4026 -0.24371,-2.51745 -0.6036,-5.05274 -1.37072,-7.46281 -0.47535,-1.4934 -1.97993,-4.26446 -1.97993,-4.26446 z"
           style="fill:#edc92c;fill-opacity:1;stroke:none;display:inline" />
        <path
           style="fill:#492a15;fill-opacity:1;stroke:none;display:inline"
           d="m -342.07407,277.51459 c 0,0 -1.64738,14.10581 -4.78855,20.32262 -0.92035,1.82151 -5.47616,5.80464 -5.47616,5.80464 l -43.36688,-5.23463 c 0,0 13.93619,-8.4376 21.26956,-11.95403 7.02962,-3.37078 21.70033,-8.72321 21.70033,-8.72321 z"
           id="path3934"
           inkscape:connector-curvature="0"
           sodipodi:nodetypes="csccscc" />
        <path
           sodipodi:nodetypes="cscssscscc"
           inkscape:connector-curvature="0"
           id="path3936"
           d="m -405.57654,313.05359 c 0,0 16.40484,-0.66531 24.73265,-0.43077 6.12089,0.17238 19.06183,0.32308 19.06183,0.32308 0,0 6.16084,-0.35278 9.07242,-1.88082 1.41155,-0.74079 3.42888,-1.98962 3.32004,-3.58003 -0.14909,-2.1785 -2.26606,-4.15623 -4.15546,-5.25087 -4.41466,-2.5577 -15.23711,-3.82696 -15.23711,-3.82696 0,0 -11.95038,-1.21966 -17.87719,-1.61542 -6.01746,-0.40181 -18.33354,-0.70327 -18.33354,-0.70327 z"
           style="fill:#dbb626;fill-opacity:1;stroke:none;display:inline" />
        <path
           inkscape:connector-curvature="0"
           id="path3938"
           d="m -384.07471,280.53002 2.26158,1.40002 1.6154,1.8308"
           style="fill:none;stroke:#000000;stroke-width:2.4000001;stroke-linecap:round;stroke-linejoin:miter;stroke-miterlimit:4;stroke-opacity:1;stroke-dasharray:none;display:inline" />
        <path
           sodipodi:open="true"
           sodipodi:end="2.6179939"
           sodipodi:start="1.4947797"
           transform="matrix(-0.8,0,0,-0.8,-319.15636,633.22497)"
           d="m 107.95828,495.51219 c -11.804808,0.417 -23.079342,-2.34262 -28.998843,-7.09794"
           sodipodi:ry="14.278335"
           sodipodi:rx="30.785357"
           sodipodi:cy="481.27509"
           sodipodi:cx="105.62034"
           id="path3940"
           style="fill:none;stroke:#000000;stroke-width:2;stroke-linecap:round;stroke-miterlimit:4;stroke-opacity:1;stroke-dasharray:none;display:inline"
           sodipodi:type="arc" />
      </g>
    </g>
  </g>
</svg>
